<?xml version="1.0" standalone="no"?>
<!DOCTYPE svg PUBLIC "-//W3C//DTD SVG 20010904//EN"
 "http://www.w3.org/TR/2001/REC-SVG-20010904/DTD/svg10.dtd">
<svg version="1.0" xmlns="http://www.w3.org/2000/svg"
 width="430.000000pt" height="430.000000pt" viewBox="0 0 430.000000 430.000000"
 preserveAspectRatio="xMidYMid meet">
<metadata>
Created by potrace 1.13, written by Peter Selinger 2001-2015
</metadata>
<g transform="translate(0.000000,430.000000) scale(0.100000,-0.100000)"
fill="#000000" stroke="none">
<path d="M300 3650 l0 -350 350 0 350 0 0 350 0 350 -350 0 -350 0 0 -350z
m600 0 l0 -250 -250 0 -250 0 0 250 0 250 250 0 250 0 0 -250z"/>
<path d="M500 3650 l0 -150 150 0 150 0 0 150 0 150 -150 0 -150 0 0 -150z"/>
<path d="M1400 3950 l0 -50 -50 0 -50 0 0 -50 0 -50 -50 0 -50 0 0 50 0 50
-50 0 -50 0 0 -300 0 -300 50 0 50 0 0 -50 0 -50 -200 0 -200 0 0 -50 0 -50
-100 0 -100 0 0 50 0 50 -50 0 -50 0 0 -50 0 -50 -50 0 -50 0 0 -50 0 -50 -50
0 -50 0 0 -300 0 -300 50 0 50 0 0 -50 0 -50 50 0 50 0 0 -50 0 -50 -100 0
-100 0 0 -150 0 -150 50 0 50 0 0 -100 0 -100 50 0 50 0 0 -50 0 -50 50 0 50
0 0 50 0 50 -50 0 -50 0 0 100 0 100 50 0 50 0 0 -50 0 -50 50 0 50 0 0 -100
0 -100 50 0 50 0 0 -100 0 -100 -250 0 -250 0 0 -50 0 -50 100 0 100 0 0 -50
0 -50 -100 0 -100 0 0 -50 0 -50 350 0 350 0 0 50 0 50 -50 0 -50 0 0 50 0 50
100 0 100 0 0 -50 0 -50 50 0 50 0 0 50 0 50 100 0 100 0 0 -50 0 -50 50 0 50
0 0 -100 0 -100 -50 0 -50 0 0 50 0 50 -150 0 -150 0 0 -150 0 -150 150 0 150
0 0 -50 0 -50 100 0 100 0 0 -100 0 -100 -50 0 -50 0 0 50 0 50 -50 0 -50 0 0
-50 0 -50 -50 0 -50 0 0 100 0 100 -50 0 -50 0 0 -50 0 -50 -50 0 -50 0 0 -50
0 -50 100 0 100 0 0 -100 0 -100 50 0 50 0 0 50 0 50 100 0 100 0 0 -50 0 -50
50 0 50 0 0 50 0 50 -50 0 -50 0 0 50 0 50 50 0 50 0 0 100 0 100 50 0 50 0 0
-150 0 -150 200 0 200 0 0 50 0 50 50 0 50 0 0 50 0 50 50 0 50 0 0 -100 0
-100 50 0 50 0 0 -50 0 -50 100 0 100 0 0 50 0 50 50 0 50 0 0 -50 0 -50 50 0
50 0 0 50 0 50 50 0 50 0 0 -50 0 -50 100 0 100 0 0 100 0 100 50 0 50 0 0 50
0 50 -50 0 -50 0 0 50 0 50 150 0 150 0 0 -200 0 -200 100 0 100 0 0 50 0 50
-50 0 -50 0 0 50 0 50 50 0 50 0 0 50 0 50 50 0 50 0 0 -50 0 -50 100 0 100 0
0 100 0 100 -50 0 -50 0 0 100 0 100 50 0 50 0 0 100 0 100 -100 0 -100 0 0
-50 0 -50 -50 0 -50 0 0 50 0 50 -50 0 -50 0 0 50 0 50 50 0 50 0 0 50 0 50
50 0 50 0 0 -50 0 -50 100 0 100 0 0 350 0 350 -50 0 -50 0 0 50 0 50 50 0 50
0 0 150 0 150 -50 0 -50 0 0 50 0 50 -50 0 -50 0 0 -50 0 -50 -50 0 -50 0 0
-100 0 -100 -100 0 -100 0 0 100 0 100 -50 0 -50 0 0 50 0 50 150 0 150 0 0
50 0 50 50 0 50 0 0 100 0 100 50 0 50 0 0 -100 0 -100 50 0 50 0 0 300 0 300
-50 0 -50 0 0 50 0 50 -250 0 -250 0 0 -50 0 -50 -50 0 -50 0 0 50 0 50 -50 0
-50 0 0 150 0 150 -50 0 -50 0 0 -100 0 -100 -50 0 -50 0 0 50 0 50 -50 0 -50
0 0 -200 0 -200 50 0 50 0 0 -50 0 -50 -50 0 -50 0 0 -50 0 -50 50 0 50 0 0
50 0 50 50 0 50 0 0 100 0 100 -50 0 -50 0 0 50 0 50 100 0 100 0 0 -150 0
-150 100 0 100 0 0 100 0 100 250 0 250 0 0 -50 0 -50 -50 0 -50 0 0 -50 0
-50 50 0 50 0 0 -50 0 -50 -50 0 -50 0 0 -50 0 -50 -50 0 -50 0 0 100 0 100
-50 0 -50 0 0 50 0 50 -50 0 -50 0 0 -50 0 -50 50 0 50 0 0 -100 0 -100 50 0
50 0 0 -50 0 -50 -50 0 -50 0 0 -50 0 -50 -100 0 -100 0 0 50 0 50 50 0 50 0
0 100 0 100 -150 0 -150 0 0 -50 0 -50 -100 0 -100 0 0 -100 0 -100 -50 0 -50
0 0 -50 0 -50 50 0 50 0 0 50 0 50 50 0 50 0 0 50 0 50 50 0 50 0 0 -100 0
-100 -50 0 -50 0 0 -50 0 -50 -50 0 -50 0 0 -50 0 -50 -50 0 -50 0 0 -50 0
-50 50 0 50 0 0 -50 0 -50 50 0 50 0 0 -50 0 -50 -50 0 -50 0 0 -50 0 -50 -50
0 -50 0 0 100 0 100 -50 0 -50 0 0 50 0 50 -50 0 -50 0 0 50 0 50 50 0 50 0 0
100 0 100 -80 0 -80 0 0 -50 c0 -49 1 -50 30 -50 29 0 30 -1 30 -50 0 -49 -1
-50 -30 -50 -29 0 -30 -1 -30 -50 0 -49 1 -50 30 -50 29 0 30 -1 30 -50 l0
-50 50 0 50 0 0 -50 0 -50 -80 0 -80 0 0 -62 c0 -120 -47 -170 -166 -176 l-74
-4 0 -29 c0 -28 2 -29 50 -29 l50 0 0 -50 0 -50 50 0 50 0 0 100 0 100 150 0
150 0 0 -50 0 -50 -100 0 -100 0 0 -150 0 -150 -50 0 -50 0 0 50 0 50 -100 0
-100 0 0 -100 0 -100 -50 0 -50 0 0 -50 0 -50 -50 0 -50 0 0 200 0 200 50 0
50 0 0 80 0 80 -100 0 -100 0 0 -30 c0 -29 1 -30 50 -30 l50 0 0 -50 0 -50
-50 0 -50 0 0 -50 0 -50 -50 0 -50 0 0 -100 0 -100 -100 0 -100 0 0 50 0 50
50 0 50 0 0 50 0 50 -50 0 -50 0 0 -50 0 -50 -100 0 -100 0 0 50 0 50 50 0 50
0 0 100 0 100 50 0 c49 0 50 1 50 30 0 18 -5 30 -13 30 -7 0 -30 9 -52 20 -31
16 -59 20 -137 20 l-98 0 0 100 0 100 -50 0 -50 0 0 -50 0 -50 -100 0 -100 0
0 50 0 50 50 0 50 0 0 50 0 50 100 0 100 0 0 50 0 50 -50 0 -50 0 0 50 0 50
-50 0 -50 0 0 50 0 50 -50 0 -50 0 0 50 0 50 -50 0 -50 0 0 50 0 50 -50 0 -50
0 0 50 0 50 -50 0 -50 0 0 50 0 50 50 0 50 0 0 50 0 50 -50 0 -50 0 0 50 0 50
50 0 50 0 0 50 0 50 50 0 50 0 0 -50 0 -50 50 0 50 0 0 -50 0 -50 -50 0 -50 0
0 -50 0 -50 50 0 50 0 0 -100 0 -100 100 0 100 0 0 -100 0 -100 50 0 50 0 0
-50 0 -50 80 0 80 0 0 50 c0 49 -1 50 -30 50 -29 0 -30 1 -30 50 0 48 1 50 29
50 l29 0 4 74 c6 119 56 166 176 166 l62 0 0 30 c0 29 1 30 50 30 49 0 50 -1
50 -30 l0 -30 150 0 150 0 0 30 c0 29 1 30 50 30 49 0 50 -1 50 -30 l0 -30 63
0 c43 0 75 -6 102 -20 23 -12 59 -20 87 -20 l48 0 0 -50 0 -50 50 0 50 0 0 50
0 50 50 0 50 0 0 50 0 50 -50 0 -50 0 0 50 0 50 -50 0 -50 0 0 -50 0 -50 -50
0 -50 0 0 200 0 200 -50 0 -50 0 0 50 0 50 -50 0 -50 0 0 200 0 200 -50 0 -50
0 0 50 0 50 -50 0 -50 0 0 50 0 50 100 0 100 0 0 -50 0 -50 50 0 50 0 0 -50 0
-50 100 0 100 0 0 -50 0 -50 50 0 50 0 0 50 0 50 100 0 100 0 0 50 0 50 -50 0
-50 0 0 50 0 50 50 0 50 0 0 100 0 100 -100 0 -100 0 0 -50 0 -50 -50 0 -50 0
0 50 0 50 -50 0 -50 0 0 -50 0 -50 50 0 50 0 0 -50 0 -50 50 0 50 0 0 -100 0
-100 -50 0 -50 0 0 50 0 50 -50 0 -50 0 0 50 0 50 -50 0 -50 0 0 100 0 100
-50 0 -50 0 0 -50 0 -50 -100 0 -100 0 0 -50 0 -50 -50 0 -50 0 0 -50 0 -50
-50 0 -50 0 0 100 0 100 50 0 50 0 0 50 0 50 -150 0 -150 0 0 -50 0 -50 -50 0
-50 0 0 -50 0 -50 -50 0 -50 0 0 100 0 100 -100 0 -100 0 0 -50z m0 -200 l0
-50 50 0 50 0 0 50 0 50 50 0 50 0 0 -50 0 -50 50 0 50 0 0 50 0 50 50 0 50 0
0 -50 0 -50 -50 0 -50 0 0 -50 0 -50 50 0 50 0 0 -50 0 -50 50 0 50 0 0 100 0
100 50 0 50 0 0 -50 0 -50 50 0 50 0 0 50 0 50 50 0 50 0 0 -50 0 -50 50 0 50
0 0 -50 0 -50 -150 0 -150 0 0 -50 0 -50 50 0 50 0 0 -100 0 -100 -150 0 -150
0 0 100 0 100 -50 0 -50 0 0 -50 0 -50 -50 0 -50 0 0 -50 0 -50 50 0 50 0 0
-50 0 -50 -50 0 -50 0 0 -50 0 -50 150 0 150 0 0 50 0 50 200 0 200 0 0 -100
0 -100 -50 0 -50 0 0 50 0 50 -50 0 -50 0 0 -50 0 -50 -50 0 -50 0 0 -50 0
-50 -50 0 -50 0 0 50 0 50 -50 0 -50 0 0 -100 0 -100 -100 0 -100 0 0 -50 0
-50 -50 0 -50 0 0 -50 0 -50 -50 0 -50 0 0 50 0 50 -50 0 -50 0 0 50 0 50 -50
0 -50 0 0 50 0 50 50 0 50 0 0 -50 0 -50 150 0 150 0 0 50 0 50 -100 0 -100 0
0 50 0 50 -100 0 -100 0 0 50 0 50 -50 0 -50 0 0 50 0 50 100 0 100 0 0 100 0
100 -50 0 -50 0 0 150 0 150 50 0 50 0 0 100 0 100 50 0 50 0 0 -50z m900
-450 l0 -100 -50 0 -50 0 0 100 0 100 50 0 50 0 0 -100z m-1700 -300 l0 -100
100 0 100 0 0 50 0 50 50 0 50 0 0 50 0 50 50 0 50 0 0 -50 0 -50 -50 0 -50 0
0 -50 0 -50 -50 0 -50 0 0 -50 0 -50 50 0 50 0 0 -50 0 -50 -100 0 -100 0 0
-50 0 -50 100 0 100 0 0 -50 0 -50 50 0 50 0 0 -50 0 -50 50 0 50 0 0 -100 0
-100 100 0 100 0 0 -100 0 -100 -50 0 -50 0 0 -50 0 -50 -100 0 -100 0 0 -50
0 -50 -50 0 -50 0 0 -50 0 -50 100 0 100 0 0 50 0 50 50 0 50 0 0 -50 0 -50
-50 0 -50 0 0 -100 0 -100 100 0 100 0 0 100 0 100 50 0 50 0 0 -100 0 -100
50 0 50 0 0 50 0 50 50 0 50 0 0 -50 0 -50 -50 0 -50 0 0 -100 0 -100 -50 0
-50 0 0 100 0 100 -50 0 -50 0 0 -50 0 -50 -50 0 -50 0 0 -50 0 -50 -50 0 -50
0 0 100 0 100 -50 0 -50 0 0 -50 0 -50 -50 0 -50 0 0 50 0 50 50 0 50 0 0 50
0 50 -50 0 -50 0 0 50 0 50 -50 0 -50 0 0 50 0 50 -50 0 -50 0 0 50 0 50 -50
0 -50 0 0 100 0 100 50 0 50 0 0 -100 0 -100 50 0 50 0 0 50 0 50 50 0 50 0 0
50 0 50 50 0 50 0 0 50 0 50 -50 0 -50 0 0 50 0 50 50 0 50 0 0 50 0 50 -50 0
-50 0 0 50 0 50 -100 0 -100 0 0 -50 0 -50 50 0 50 0 0 -50 0 -50 -100 0 -100
0 0 50 0 50 -50 0 -50 0 0 100 0 100 -50 0 -50 0 0 150 0 150 50 0 50 0 0 100
0 100 50 0 50 0 0 -100z m2800 -550 l0 -50 -50 0 -50 0 0 -50 0 -50 -50 0 -50
0 0 50 0 50 50 0 50 0 0 50 0 50 50 0 50 0 0 -50z m500 -250 l0 -100 -50 0
-50 0 0 -100 0 -100 50 0 50 0 0 -150 0 -150 -100 0 -100 0 0 -50 0 -50 50 0
50 0 0 -50 0 -50 50 0 50 0 0 -50 0 -50 -50 0 -50 0 0 50 0 50 -50 0 -50 0 0
-50 0 -50 -50 0 -50 0 0 -50 0 -50 -100 0 -100 0 0 50 0 50 -50 0 -50 0 0 -50
0 -50 -100 0 -100 0 0 50 0 50 100 0 100 0 0 50 0 50 -100 0 -100 0 0 50 0 50
-50 0 -50 0 0 -100 0 -100 -50 0 -50 0 0 -50 0 -50 50 0 50 0 0 -50 0 -50 50
0 50 0 0 -50 0 -50 -50 0 -50 0 0 -50 0 -50 -50 0 -50 0 0 -100 0 -100 100 0
100 0 0 -150 0 -150 -50 0 -50 0 0 50 0 50 -50 0 -50 0 0 -50 0 -50 -50 0 -50
0 0 50 0 50 -50 0 -50 0 0 -50 0 -50 -50 0 -50 0 0 50 0 50 50 0 50 0 0 50 0
50 -100 0 -100 0 0 100 0 100 -100 0 -100 0 0 -100 0 -100 -50 0 -50 0 0 -50
0 -50 -50 0 -50 0 0 50 0 50 -50 0 -50 0 0 -50 0 -50 -50 0 -50 0 0 100 0 100
100 0 100 0 0 50 0 50 -50 0 -50 0 0 50 0 50 -50 0 -50 0 0 -50 0 -50 -100 0
-100 0 0 -50 0 -50 -50 0 -50 0 0 100 0 100 -50 0 -50 0 0 -50 0 -50 -50 0
-50 0 0 50 0 50 -100 0 -100 0 0 50 0 50 100 0 100 0 0 -50 0 -50 50 0 50 0 0
50 0 50 50 0 50 0 0 100 0 100 100 0 100 0 0 -50 0 -50 100 0 100 0 0 50 0 50
50 0 50 0 0 -50 0 -50 -50 0 -50 0 0 -100 0 -100 50 0 50 0 0 -50 0 -50 50 0
50 0 0 100 0 100 100 0 100 0 0 50 0 50 50 0 50 0 0 100 0 100 50 0 50 0 0
-50 0 -50 50 0 50 0 0 -50 0 -50 -100 0 -100 0 0 -50 0 -50 50 0 50 0 0 -100
0 -100 50 0 50 0 0 50 0 50 100 0 100 0 0 100 0 100 -50 0 -50 0 0 100 0 100
50 0 50 0 0 50 0 50 -50 0 -50 0 0 50 0 50 50 0 50 0 0 50 0 50 200 0 200 0 0
50 0 50 -100 0 -100 0 0 100 0 100 50 0 50 0 0 -50 0 -50 50 0 50 0 0 -50 0
-50 50 0 50 0 0 -50 0 -50 -50 0 -50 0 0 -50 0 -50 50 0 50 0 0 -100 0 -100
50 0 50 0 0 200 0 200 50 0 50 0 0 50 0 50 -50 0 -50 0 0 50 0 50 -50 0 -50 0
0 50 0 50 100 0 100 0 0 -100 0 -100 100 0 100 0 0 50 0 50 -50 0 -50 0 0 100
0 100 50 0 50 0 0 100 0 100 50 0 50 0 0 -100z m-500 -50 l0 -50 -100 0 -100
0 0 50 0 50 100 0 100 0 0 -50z m-2900 -150 l0 -100 -50 0 -50 0 0 100 0 100
50 0 50 0 0 -100z m3000 -1050 l0 -150 -150 0 -150 0 0 150 0 150 150 0 150 0
0 -150z m400 0 l0 -50 -50 0 -50 0 0 -100 0 -100 50 0 50 0 0 -50 0 -50 -50 0
-50 0 0 50 0 50 -100 0 -100 0 0 50 0 50 50 0 50 0 0 50 0 50 50 0 50 0 0 50
0 50 50 0 50 0 0 -50z"/>
<path d="M1500 3650 l0 -50 -50 0 -50 0 0 -100 0 -100 -50 0 -50 0 0 -50 0
-50 50 0 50 0 0 -100 0 -100 -50 0 -50 0 0 -50 0 -50 50 0 50 0 0 -50 0 -50
100 0 100 0 0 -50 0 -50 50 0 50 0 0 50 0 50 -50 0 -50 0 0 50 0 50 -50 0 -50
0 0 50 0 50 50 0 50 0 0 50 0 50 -50 0 -50 0 0 50 0 50 50 0 50 0 0 50 0 50
-50 0 -50 0 0 100 0 100 50 0 50 0 0 -50 0 -50 50 0 50 0 0 50 0 50 -50 0 -50
0 0 50 0 50 -50 0 -50 0 0 -50z"/>
<path d="M500 2700 l0 -100 50 0 50 0 0 -50 0 -50 50 0 50 0 0 50 0 50 -50 0
-50 0 0 50 0 50 50 0 50 0 0 50 0 50 -100 0 -100 0 0 -100z"/>
<path d="M3300 3650 l0 -350 350 0 350 0 0 350 0 350 -350 0 -350 0 0 -350z
m600 0 l0 -250 -250 0 -250 0 0 250 0 250 250 0 250 0 0 -250z"/>
<path d="M3500 3650 l0 -150 150 0 150 0 0 150 0 150 -150 0 -150 0 0 -150z"/>
<path d="M3100 3750 l0 -150 50 0 50 0 0 150 0 150 -50 0 -50 0 0 -150z"/>
<path d="M2500 3400 l0 -100 50 0 50 0 0 100 0 100 -50 0 -50 0 0 -100z"/>
<path d="M2700 3150 l0 -250 50 0 50 0 0 250 0 250 -50 0 -50 0 0 -250z"/>
<path d="M1761 2576 c-49 -27 -50 -36 -51 -424 0 -394 1 -406 55 -430 18 -9
128 -12 386 -12 355 0 391 3 411 33 9 15 -15 35 -48 39 -17 2 -28 8 -27 16 2
6 -6 12 -17 12 -11 0 -20 7 -20 15 0 8 -4 15 -9 15 -4 0 -16 28 -25 63 -12 45
-23 65 -39 72 -17 8 -23 20 -25 58 -2 27 1 47 7 47 21 0 35 47 38 130 1 47 4
108 7 137 2 31 -2 62 -9 77 -7 13 -10 27 -7 31 4 3 0 10 -8 16 -13 8 -13 10 0
19 13 8 12 10 -2 10 -10 0 -18 6 -18 13 0 9 27 11 110 9 69 -3 110 0 110 6 0
6 -14 22 -31 36 l-31 26 -366 0 c-285 -1 -372 -4 -391 -14z"/>
<path d="M1900 1580 l0 -80 50 0 50 0 0 80 0 80 -50 0 -50 0 0 -80z"/>
<path d="M300 650 l0 -350 350 0 350 0 0 350 0 350 -350 0 -350 0 0 -350z
m600 0 l0 -250 -250 0 -250 0 0 250 0 250 250 0 250 0 0 -250z"/>
<path d="M500 650 l0 -150 150 0 150 0 0 150 0 150 -150 0 -150 0 0 -150z"/>
</g>
</svg>
